<svg xmlns="http://www.w3.org/2000/svg" viewBox="0 0 132.67 110.53"><defs><style>.cls-1{fill:red;}</style></defs><title>hearts-red</title><g id="Layer_2" data-name="Layer 2"><g id="Layer_1-2" data-name="Layer 1"><rect class="cls-1" x="117.93" y="41.43" width="14.74" height="13.81"/><rect class="cls-1" x="117.93" y="27.62" width="14.74" height="13.81"/><rect class="cls-1" x="103.19" y="55.25" width="14.74" height="13.85"/><rect class="cls-1" x="103.19" y="41.43" width="14.74" height="13.81"/><rect class="cls-1" x="103.19" y="27.62" width="14.74" height="13.81"/><rect class="cls-1" x="103.19" y="13.81" width="14.74" height="13.81"/><rect class="cls-1" x="88.46" y="69.09" width="14.74" height="13.81"/><rect class="cls-1" x="88.46" y="55.25" width="14.74" height="13.85"/><rect class="cls-1" x="88.46" y="41.43" width="14.74" height="13.81"/><rect class="cls-1" x="88.46" y="27.62" width="14.74" height="13.81"/><rect class="cls-1" x="88.46" y="13.81" width="14.74" height="13.81"/><rect class="cls-1" x="88.46" width="14.74" height="13.81"/><rect class="cls-1" x="73.72" y="82.9" width="14.74" height="13.81"/><rect class="cls-1" x="73.72" y="69.09" width="14.74" height="13.81"/><rect class="cls-1" x="73.72" y="55.25" width="14.74" height="13.85"/><rect class="cls-1" x="73.72" y="41.43" width="14.74" height="13.81"/><rect class="cls-1" x="73.72" y="27.62" width="14.74" height="13.81"/><rect class="cls-1" x="73.72" y="13.81" width="14.74" height="13.81"/><rect class="cls-1" x="73.72" width="14.74" height="13.81"/><rect class="cls-1" x="58.95" y="96.71" width="14.77" height="13.81"/><rect class="cls-1" x="58.95" y="82.9" width="14.77" height="13.81"/><rect class="cls-1" x="58.95" y="69.09" width="14.77" height="13.81"/><rect class="cls-1" x="58.95" y="55.25" width="14.77" height="13.85"/><rect class="cls-1" x="58.95" y="41.43" width="14.77" height="13.81"/><rect class="cls-1" x="58.95" y="27.62" width="14.77" height="13.81"/><rect class="cls-1" x="58.95" y="13.81" width="14.77" height="13.81"/><rect class="cls-1" x="44.21" y="82.9" width="14.74" height="13.81"/><rect class="cls-1" x="44.21" y="69.09" width="14.74" height="13.81"/><rect class="cls-1" x="44.21" y="55.25" width="14.74" height="13.85"/><rect class="cls-1" x="44.21" y="41.43" width="14.74" height="13.81"/><rect class="cls-1" x="44.21" y="27.62" width="14.74" height="13.81"/><rect class="cls-1" x="44.21" y="13.81" width="14.74" height="13.81"/><rect class="cls-1" x="44.21" width="14.74" height="13.81"/><rect class="cls-1" x="29.47" y="69.09" width="14.74" height="13.81"/><rect class="cls-1" x="29.47" y="55.25" width="14.74" height="13.85"/><rect class="cls-1" x="29.47" y="41.43" width="14.74" height="13.81"/><rect class="cls-1" x="29.47" y="27.62" width="14.74" height="13.81"/><rect class="cls-1" x="29.47" y="13.81" width="14.74" height="13.81"/><rect class="cls-1" x="29.47" width="14.74" height="13.81"/><rect class="cls-1" x="14.74" y="55.25" width="14.74" height="13.85"/><rect class="cls-1" x="14.74" y="41.43" width="14.74" height="13.81"/><rect class="cls-1" x="14.74" y="27.62" width="14.74" height="13.81"/><rect class="cls-1" x="14.74" y="13.81" width="14.74" height="13.81"/><rect class="cls-1" y="41.43" width="14.74" height="13.81"/><rect class="cls-1" y="27.62" width="14.74" height="13.81"/></g></g></svg>